<svg width="200" height="150" viewBox="0 0 200 150" fill="none" xmlns="http://www.w3.org/2000/svg">
<rect x="52.5" y="2.5" width="45" height="45" rx="22.5" fill="white" stroke="#011627" stroke-width="5"/>
<rect x="63" y="13" width="24" height="24" rx="12" fill="#5D5DF6"/>
<rect x="102.5" y="2.5" width="45" height="45" rx="22.5" fill="white" stroke="#011627" stroke-width="5"/>
<rect x="113" y="13" width="24" height="24" rx="12" fill="#5D5DF6"/>
<rect x="152.5" y="2.5" width="45" height="45" rx="22.5" fill="white" stroke="#011627" stroke-width="5"/>
<rect x="163" y="13" width="24" height="24" rx="12" fill="#5D5DF6"/>
<rect x="2.5" y="2.5" width="45" height="45" rx="22.5" fill="white" stroke="#011627" stroke-width="5"/>
<rect x="13" y="13" width="24" height="24" rx="12" fill="#5D5DF6"/>
<rect x="52.5" y="52.5" width="45" height="45" rx="22.5" fill="white" stroke="#011627" stroke-width="5"/>
<rect x="63" y="63" width="24" height="24" rx="12" fill="#5D5DF6"/>
<rect x="102.5" y="52.5" width="45" height="45" rx="22.5" fill="white" stroke="#011627" stroke-width="5"/>
<rect x="113" y="63" width="24" height="24" rx="12" fill="#5D5DF6"/>
<rect x="152.5" y="52.5" width="45" height="45" rx="22.5" fill="white" stroke="#011627" stroke-width="5"/>
<rect x="163" y="63" width="24" height="24" rx="12" fill="#5D5DF6"/>
<rect x="2.5" y="52.5" width="45" height="45" rx="22.5" fill="white" stroke="#011627" stroke-width="5"/>
<rect x="13" y="63" width="24" height="24" rx="12" fill="#5D5DF6"/>
<rect x="52.5" y="102.5" width="45" height="45" rx="22.5" fill="white" stroke="#011627" stroke-width="5"/>
<rect x="63" y="113" width="24" height="24" rx="12" fill="#5D5DF6"/>
<rect x="102.5" y="102.5" width="45" height="45" rx="22.5" fill="white" stroke="#011627" stroke-width="5"/>
<rect x="113" y="113" width="24" height="24" rx="12" fill="#5D5DF6"/>
<rect x="152.5" y="102.5" width="45" height="45" rx="22.5" fill="white" stroke="#011627" stroke-width="5"/>
<rect x="163" y="113" width="24" height="24" rx="12" fill="#5D5DF6"/>
<rect x="2.5" y="102.5" width="45" height="45" rx="22.5" fill="white" stroke="#011627" stroke-width="5"/>
<rect x="13" y="113" width="24" height="24" rx="12" fill="#5D5DF6"/>
<rect x="45" y="20" width="10" height="10" rx="5" fill="#5D5DF6"/>
<rect x="45" y="71" width="10" height="10" rx="5" fill="#5D5DF6"/>
<rect x="45" y="120" width="10" height="10" rx="5" fill="#5D5DF6"/>
<rect x="95" y="120" width="10" height="10" rx="5" fill="#5D5DF6"/>
<rect x="95" y="70" width="10" height="10" rx="5" fill="#5D5DF6"/>
<rect x="95" y="20" width="10" height="10" rx="5" fill="#5D5DF6"/>
<rect x="145" y="20" width="10" height="10" rx="5" fill="#5D5DF6"/>
<rect x="145" y="70" width="10" height="10" rx="5" fill="#5D5DF6"/>
<rect x="145" y="120" width="10" height="10" rx="5" fill="#5D5DF6"/>
</svg>
